<svg xmlns="http://www.w3.org/2000/svg" width="142.018" height="40" viewBox="0 0 142.018 40">
    <g id="Logo" transform="translate(71.009 20)">
      <g id="Group_4" data-name="Group 4" transform="translate(-71.009 -20)">
        <path id="Path_1" data-name="Path 1" d="M210.052,99.884a1.126,1.126,0,0,0-.322.264v1.8a.928.928,0,0,0,.228.623.78.78,0,0,0,.485.248.739.739,0,0,0,.676-.432,2.574,2.574,0,0,0,.03-2.21.745.745,0,0,0-.674-.409.848.848,0,0,0-.425.121m-.308,2.823a.378.378,0,0,0-.422-.07.583.583,0,0,0-.268.439h-.124V98.689q0-.579-.465-.492v-.114l1.266-.2V99.9a1.381,1.381,0,0,1,.971-.4,1.408,1.408,0,0,1,1.091.459,1.786,1.786,0,0,1,.412,1.269,1.863,1.863,0,0,1-.451,1.306,1.43,1.43,0,0,1-1.1.5,1.518,1.518,0,0,1-.911-.332" transform="translate(-142.282 -66.809)" fill="#ffffff"/>
        <path id="Path_2" data-name="Path 2" d="M219.41,103.221h1.685v.114q-.392,0-.1.7l.626,1.52.673-1.547q.292-.673-.214-.677v-.114h1.152v.114q-.482.013-.777.7l-1.48,3.459a1.549,1.549,0,0,1-.4.6.988.988,0,0,1-.477.221.852.852,0,0,1-.444-.033.392.392,0,0,1-.243-.225.42.42,0,0,1-.007-.29.268.268,0,0,1,.183-.179.318.318,0,0,1,.355.114.687.687,0,0,0,.241.2.333.333,0,0,0,.281-.01.878.878,0,0,0,.358-.456l.365-.844-1.058-2.559q-.291-.7-.717-.7Z" transform="translate(-149.731 -70.451)" fill="#ffffff"/>
        <path id="Path_3" data-name="Path 3" d="M105.147,3.834,99.537,0H96.991V.746q3.373,0,3.374,3.411V23q0,3.43-3.355,3.429l-.019.69h23.431l.466-7.754-.708-.037a8.11,8.11,0,0,1-1.771,4.222,7.216,7.216,0,0,1-3.15,2.227,12.471,12.471,0,0,1-4.026.6q-6.1,0-6.1-4.529V4.157c0-.111.005-.218.01-.324" transform="translate(-66.199 -0.001)" fill="#ffffff"/>
        <path id="Path_4" data-name="Path 4" d="M113.982.746V0h-8.974l5.611,3.833q.158-3.085,3.364-3.087" transform="translate(-71.671 -0.001)" fill="#ffffff"/>
        <path id="Path_5" data-name="Path 5" d="M178.376,53.921v5.548q.018,3.673-2.591,3.8v.652h9.73v-.652q-2.572-.149-2.591-3.8V57.028Z" transform="translate(-119.978 -36.802)" fill="#ffffff"/>
        <path id="Path_6" data-name="Path 6" d="M182.924,24.953,175.785,26v.652q2.609-.466,2.591,2.61V34.15l4.548,3.106Z" transform="translate(-119.978 -17.031)" fill="#ffffff"/>
        <path id="Path_7" data-name="Path 7" d="M220.662,28.778a6.783,6.783,0,0,1-.724,2.167l-4.213,8.631-3.561-8.631q-1.641-4.026.913-3.989V26.3H203.5v.652q1.79.019,3.542,3.989l6.282,14.13h.876l6.748-14.13a13.844,13.844,0,0,1,.779-1.42Z" transform="translate(-138.892 -17.953)" fill="#ffffff"/>
        <path id="Path_8" data-name="Path 8" d="M258.126,26.956V26.3h-6.542v.652q2.092.025,1.9,1.821l1.061.747q1.612-2.551,3.583-2.568" transform="translate(-171.712 -17.953)" fill="#ffffff"/>
        <path id="Path_9" data-name="Path 9" d="M278.307,52.628v5.959q.019,3.672-2.591,3.8v.652h9.73v-.652q-2.572-.149-2.591-3.8V55.832Z" transform="translate(-188.183 -35.92)" fill="#ffffff"/>
        <path id="Path_10" data-name="Path 10" d="M282.854,24.953,275.715,26v.652q2.609-.466,2.591,2.61v4.48l4.548,3.2Z" transform="translate(-188.182 -17.031)" fill="#ffffff"/>
        <path id="Path_11" data-name="Path 11" d="M312.344,76.4a2.459,2.459,0,0,1-2.458,2.232v.634h6.526Z" transform="translate(-211.505 -52.146)" fill="#ffffff"/>
        <path id="Path_12" data-name="Path 12" d="M319.635,44.146v-.634q-2.61-.056-2.61-3.97V30.687a4.4,4.4,0,0,1,1.025-2.908,3.425,3.425,0,0,1,5.275-.019,4.351,4.351,0,0,1,1.007,2.927v8.854q0,3.914-2.573,3.97v.634h9.562v-.634q-2.572-.056-2.572-3.97V31.3a6.479,6.479,0,0,0-1.64-4.753,6.011,6.011,0,0,0-4.567-1.6,6.954,6.954,0,0,0-5.518,2.516,4.342,4.342,0,0,0-.578-2.516l-6.561,1.044v.652q2.628-.466,2.628,2.74V39.542a7.873,7.873,0,0,1-.17,1.738l4.069,2.866Z" transform="translate(-211.505 -17.024)" fill="#ffffff"/>
        <path id="Path_13" data-name="Path 13" d="M384.894,49.77a7.757,7.757,0,0,0,2.312.261H396.4a3.789,3.789,0,0,1,2.312.615,1.74,1.74,0,0,1,.745,1.389,2.663,2.663,0,0,1-.41,1.575,4.655,4.655,0,0,1-1.174,1.249,13.545,13.545,0,0,1-7.549,2.219q-4.473.112-6.543-1.212a3.943,3.943,0,0,1-1.994-3.635,4.735,4.735,0,0,1,1.361-3.28,7.219,7.219,0,0,0,1.752.82M394.4,35.436a7.221,7.221,0,0,1-1.174,4.269,3.126,3.126,0,0,1-2.666,1.733,3.246,3.246,0,0,1-2.759-1.622,7.338,7.338,0,0,1-1.063-4.157,8.335,8.335,0,0,1,1-4.193q-1.541-.363-3.062-.768c-.032.026-.065.05-.1.077a5.983,5.983,0,0,0-2.4,4.847,5.375,5.375,0,0,0,.895,2.982,7.162,7.162,0,0,0,2.274,2.255q-3.411,1.734-3.933,4.25a3.6,3.6,0,0,0,.1,1.659,4.19,4.19,0,0,0,1.072,1.79,5.3,5.3,0,0,0-1.659,3.8,5.144,5.144,0,0,0,.559,2.516,4.476,4.476,0,0,0,1.939,1.9,13.942,13.942,0,0,0,6.971,1.379,16.507,16.507,0,0,0,7.531-1.752q4.082-2.163,4.082-5.685-.038-5.517-7.251-5.517h-7.605q-2.312,0-2.7-1.342a1.874,1.874,0,0,1,.261-1.454,3.331,3.331,0,0,1,1.137-1.286V41.2a10.049,10.049,0,0,0,4.623,1.007,9.633,9.633,0,0,0,6-1.883A6.186,6.186,0,0,0,399,35.436a6.891,6.891,0,0,0-.3-2.054q-2.326-.251-4.646-.639a10.215,10.215,0,0,1,.337,2.693" transform="translate(-259.988 -20.953)" fill="#ffffff"/>
        <path id="Path_14" data-name="Path 14" d="M401.983,25.241s-.751-.174-1.1-.224a10.863,10.863,0,0,0-2.125-.242,9.238,9.238,0,0,0-6.017,1.88q1.52.4,3.061.768l.011-.02a3.056,3.056,0,0,1,2.814-1.883,3.116,3.116,0,0,1,2.256.876,5.359,5.359,0,0,1,1.247,2.3q2.318.385,4.647.64a5.317,5.317,0,0,0-1.066-1.935,6.937,6.937,0,0,0-3.728-2.162" transform="translate(-268.055 -16.909)" fill="#ffffff"/>
        <path id="Path_15" data-name="Path 15" d="M4.063,54.887q-1.28,3.4-4.063,3.4v.724H6.828v-.724q-3.172,0-1.873-3.4l2.863-7.455-.737-.5Z" transform="translate(0 -32.03)" fill="#ffffff"/>
        <path id="Path_16" data-name="Path 16" d="M53.924,71.684l.042.1q1.41,3.4-2.189,3.4V75.9H60.1Z" transform="translate(-35.339 -48.926)" fill="#ffffff"/>
        <path id="Path_17" data-name="Path 17" d="M42.829,26.976v-.724q-2.375,0-3.8-3.4L29.192,0H27.95L22.3,14.9l.737.5,3.649-9.5,7.119,16.858,6.176,4.218Z" transform="translate(-15.222)" fill="#ffffff"/>
        <path id="Path_18" data-name="Path 18" d="M239.647,99.433l-2.88-6.932h-.376l-.41,1.078,0-.007-2.224,5.861a1.185,1.185,0,0,1-1.188.868v.243h2.04V100.3q-.94,0-.591-.868l1.98-5.182,0,.01v0l.146.364.437,1.083h0l.249.619h0l.48,1.189.053.128h0l.094.232h0l.63,1.559q.354.879-.586.868v.243h3.305V100.3a1.257,1.257,0,0,1-1.161-.868" transform="translate(-158.732 -63.134)" fill="#ffffff"/>
        <path id="Path_19" data-name="Path 19" d="M241.84,107.192l-.706.974.706.974h0l.706-.974Z" transform="translate(-164.58 -73.161)" fill="#ffffff"/>
        <path id="Path_20" data-name="Path 20" d="M261.261,103.63q0,.852.568.865v.138h-2.135V104.5q.585-.012.584-.865V99.466q.012-.7-.584-.592v-.146l1.567-.235v5.138Z" transform="translate(-177.247 -67.223)" fill="#ffffff"/>
        <path id="Path_21" data-name="Path 21" d="M270.163,103.63q0,.852.568.865v.138H268.6V104.5q.584-.012.584-.865V99.466q.012-.7-.584-.592v-.146l1.566-.235v5.138Z" transform="translate(-183.324 -67.223)" fill="#ffffff"/>
        <path id="Path_22" data-name="Path 22" d="M345.393,106.891q-.337,1.291-1.254,1.327a1.119,1.119,0,0,1-.966-.483,2.076,2.076,0,0,1-.394-1.218,3.351,3.351,0,0,1,.11-.921,1.963,1.963,0,0,1,.39-.755.8.8,0,0,1,.621-.32.691.691,0,0,1,.467.138.922.922,0,0,1,.15.357.767.767,0,0,0,.158.309.448.448,0,0,0,.219.126.383.383,0,0,0,.268-.049.3.3,0,0,0,.154-.235.509.509,0,0,0-.248-.463,2.185,2.185,0,0,0-2.776.256,2.317,2.317,0,0,0-.539,1.566,2.075,2.075,0,0,0,.58,1.486,1.878,1.878,0,0,0,1.421.6,1.58,1.58,0,0,0,1.148-.447,2.219,2.219,0,0,0,.621-1.274Z" transform="translate(-233.255 -71.202)" fill="#ffffff"/>
        <path id="Path_23" data-name="Path 23" d="M358.416,107.548a.329.329,0,0,0-.268-.057.379.379,0,0,0-.215.126.849.849,0,0,0-.166.272,1.666,1.666,0,0,1-.178.374.676.676,0,0,1-.471.134q-.808,0-.816-.528c0-.011,0-.022,0-.032h0v-.707h0v-1.051a2.08,2.08,0,0,1,.223-1.019.676.676,0,0,1,.621-.4.567.567,0,0,1,.507.252,1.062,1.062,0,0,1,.179.589c0,1.1-.783,1.114-.873,1.164a1.8,1.8,0,0,0,.9-.043,1.115,1.115,0,0,0,.942-1.169,1.06,1.06,0,0,0-.345-.832,1.309,1.309,0,0,0-.877-.324,2.2,2.2,0,0,0-2.24,2.118v.655a1.9,1.9,0,0,0,.166.876q.325.65,1.612.65a1.874,1.874,0,0,0,1.193-.361.525.525,0,0,0,.243-.442.357.357,0,0,0-.138-.244" transform="translate(-242.528 -71.185)" fill="#ffffff"/>
        <path id="Path_24" data-name="Path 24" d="M280.575,107.548a.329.329,0,0,0-.268-.057.379.379,0,0,0-.215.126.849.849,0,0,0-.166.272,1.636,1.636,0,0,1-.178.374.676.676,0,0,1-.471.134q-.808,0-.816-.528c0-.011,0-.022,0-.032h0v-.707h0v-1.051a2.08,2.08,0,0,1,.223-1.019.676.676,0,0,1,.621-.4.567.567,0,0,1,.507.252,1.062,1.062,0,0,1,.179.589c0,1.1-.783,1.114-.873,1.164a1.8,1.8,0,0,0,.9-.043,1.115,1.115,0,0,0,.942-1.169,1.061,1.061,0,0,0-.345-.832,1.309,1.309,0,0,0-.877-.324,2.2,2.2,0,0,0-2.24,2.118v.655a1.9,1.9,0,0,0,.166.876q.325.65,1.612.65a1.874,1.874,0,0,0,1.193-.361.525.525,0,0,0,.243-.442.358.358,0,0,0-.138-.244" transform="translate(-189.4 -71.185)" fill="#ffffff"/>
        <path id="Path_25" data-name="Path 25" d="M314.736,105.343a.329.329,0,0,0,.268.057.379.379,0,0,0,.215-.126.847.847,0,0,0,.166-.272,1.624,1.624,0,0,1,.178-.373.674.674,0,0,1,.471-.134q.808,0,.816.527c0,.011,0,.022,0,.033h0v.707h0v1.051a2.08,2.08,0,0,1-.224,1.019.675.675,0,0,1-.621.4.566.566,0,0,1-.507-.251,1.064,1.064,0,0,1-.178-.589c0-1.1.783-1.115.873-1.164a1.807,1.807,0,0,0-.9.043,1.115,1.115,0,0,0-.942,1.169,1.062,1.062,0,0,0,.345.832,1.309,1.309,0,0,0,.877.324,2.2,2.2,0,0,0,2.24-2.118v-.655a1.9,1.9,0,0,0-.166-.877q-.325-.65-1.612-.65a1.874,1.874,0,0,0-1.193.361.525.525,0,0,0-.243.442.358.358,0,0,0,.138.244" transform="translate(-214.551 -71.185)" fill="#ffffff"/>
        <path id="Path_26" data-name="Path 26" d="M292.654,104.852a.666.666,0,0,1,.613-.41.678.678,0,0,1,.491.19,1.541,1.541,0,0,1,.345,1.088,1.572,1.572,0,0,1-.256.929.68.68,0,0,1-.581.377.707.707,0,0,1-.6-.353,1.6,1.6,0,0,1-.231-.905,1.813,1.813,0,0,1,.219-.917m-.523,2.05h0l.12.076a2.2,2.2,0,0,0,1,.215,2.1,2.1,0,0,0,1.307-.41,1.345,1.345,0,0,0,.552-1.063,1.275,1.275,0,0,0-.3-.869,1.906,1.906,0,0,0-1.514-.572,2,2,0,0,0-1.331.426,1.3,1.3,0,0,0-.523,1.055,1.171,1.171,0,0,0,.195.65,1.567,1.567,0,0,0,.5.491" transform="translate(-198.915 -71.174)" fill="#ffffff"/>
        <path id="Path_27" data-name="Path 27" d="M335.614,107.957v-1.928a1.322,1.322,0,0,0-.092-.558.942.942,0,0,0-1.01-.637.625.625,0,0,0-.575.349.581.581,0,0,1,.421.2.914.914,0,0,1,.231.641v1.928q0,.852-.6.865v.138h2.225v-.138q-.6-.012-.6-.865" transform="translate(-227.92 -71.549)" fill="#ffffff"/>
        <path id="Path_28" data-name="Path 28" d="M307.988,107.878v-3.211l-1.555.227v.142q.568-.1.564.568v2.273q0,.8-.564.828v.142h2.118v-.142q-.56-.032-.564-.828" transform="translate(-209.148 -71.438)" fill="#ffffff"/>
        <path id="Path_29" data-name="Path 29" d="M328.528,107.878v-3.211l-1.554.227v.142q.568-.1.564.568v2.273q0,.8-.564.828v.142h2.118v-.142q-.56-.032-.564-.828" transform="translate(-223.168 -71.438)" fill="#ffffff"/>
        <path id="Path_30" data-name="Path 30" d="M309.066,100.352l-.41-.564-.409.564.409.564Z" transform="translate(-210.386 -68.108)" fill="#ffffff"/>
        <path id="Path_31" data-name="Path 31" d="M294,116.08a1.068,1.068,0,0,1-.256.3,2.78,2.78,0,0,1-1.644.526,2.419,2.419,0,0,1-1.425-.287.959.959,0,0,1-.434-.863,1.177,1.177,0,0,1,.3-.778,1.525,1.525,0,0,0,.382.194,1.556,1.556,0,0,0,.5.062h2a.775.775,0,0,1,.5.146.425.425,0,0,1,.163.33.674.674,0,0,1-.09.374m-.933-1.994h-1.656q-.5,0-.589-.318a.429.429,0,0,1,.012-.241.44.44,0,0,1,.115-.178c.075-.074.184-.175.192-.184l-.136-.094,0,0-.025-.019-.243.184a1.348,1.348,0,0,0-.578.83.918.918,0,0,0,.022.393,1.006,1.006,0,0,0,.233.424,1.38,1.38,0,0,0-.24,1.5,1.023,1.023,0,0,0,.422.451,2.824,2.824,0,0,0,1.518.327,3.354,3.354,0,0,0,1.64-.416,1.527,1.527,0,0,0,.889-1.349q-.008-1.309-1.579-1.309" transform="translate(-197.971 -77.159)" fill="#ffffff"/>
        <path id="Path_32" data-name="Path 32" d="M78.873,29.208,76.442,32.56l2.431,3.352h0L81.3,32.56Z" transform="translate(-52.174 -19.935)" fill="#ffffff"/>
        <path id="Path_33" data-name="Path 33" d="M187.889,2.905A2.514,2.514,0,1,1,185.376.392a2.513,2.513,0,0,1,2.513,2.513" transform="translate(-124.808 -0.268)" fill="#ffffff"/>
        <path id="Path_34" data-name="Path 34" d="M288.6,2.905A2.514,2.514,0,1,1,286.084.392,2.513,2.513,0,0,1,288.6,2.905" transform="translate(-193.543 -0.268)" fill="#ffffff"/>
      </g>
    </g>
  </svg>
  