<svg width="192" height="48" viewBox="0 0 192 48" fill="none" xmlns="http://www.w3.org/2000/svg">
<path fill-rule="evenodd" clip-rule="evenodd" d="M32.1688 31.1095L19.1538 0.00830078H17.4551L15.6019 4.84509L15.5882 4.81184L5.53902 31.1095C4.5059 33.7555 2.71588 35.0536 0.167969 35.004V36.0951H9.38595V35.004C6.55449 35.004 5.66365 33.7059 6.71321 31.1095C6.71321 31.1095 12.6448 15.699 15.6619 7.85689L15.6793 7.89978C15.6799 7.8982 15.6805 7.89663 15.6811 7.89505C15.9074 8.45473 16.1275 8.99886 16.3415 9.52824L18.317 14.3847L18.3091 14.3882C18.7198 15.4021 19.0943 16.3255 19.4359 17.1665L19.4417 17.1642L21.6121 22.5006C21.7154 22.7499 21.7966 22.9446 21.8515 23.0743H21.8453L22.269 24.1157H22.2761L25.124 31.1095C26.1898 33.7391 25.3071 35.0373 22.4762 35.004V36.0951H37.415V35.004C35.0167 34.9381 33.2681 33.64 32.1688 31.1095Z" fill="white"/>
<path fill-rule="evenodd" clip-rule="evenodd" d="M15.652 20.9341L12.4609 25.3042L15.652 29.6742V29.6736V29.6742L18.8433 25.3042L15.652 20.9341Z" fill="white"/>
<path fill-rule="evenodd" clip-rule="evenodd" d="M46.1701 31.597C46.1701 34.1466 47.0258 35.4396 48.7382 35.4762V36.0951H39.0898V35.4762C40.8507 35.4396 41.7313 34.1466 41.7313 31.597V12.9121C41.7679 10.8119 40.8874 9.92544 39.0898 10.2534V9.5979L46.1701 8.5415V17.2651V31.597Z" fill="white"/>
<path fill-rule="evenodd" clip-rule="evenodd" d="M58.9425 31.597C58.9425 34.1466 59.7983 35.4396 61.5107 35.4762V36.0951H51.8623V35.4762C53.6232 35.4396 54.5037 34.1466 54.5037 31.597V12.9121C54.5404 10.8119 53.6599 9.92544 51.8623 10.2534V9.5979L58.9425 8.5415V17.2651V31.597Z" fill="white"/>
<path fill-rule="evenodd" clip-rule="evenodd" d="M173.276 28.3732C172.261 32.2345 170.371 34.2196 167.608 34.3286C165.834 34.3772 164.38 33.6548 163.242 32.1615C162.105 30.6316 161.512 28.8107 161.463 26.6981C161.438 25.2776 161.603 23.9002 161.958 22.564C162.337 21.2291 162.924 20.0997 163.719 19.1771C164.538 18.2179 165.474 17.7381 166.526 17.7381C167.491 17.7503 168.195 17.9566 168.635 18.3574C168.818 18.5029 169.045 19.0374 169.314 19.9597C169.522 20.6155 169.76 21.0768 170.029 21.3442C170.298 21.6231 170.628 21.8118 171.02 21.9086C171.46 21.9814 171.863 21.9086 172.23 21.69C172.646 21.4473 172.878 21.0953 172.927 20.6336C173.025 19.9054 172.652 19.2133 171.808 18.5576C170.365 17.4168 168.507 16.8459 166.232 16.8459C163.224 16.8459 160.9 17.7991 159.262 19.7051C157.648 21.5505 156.834 23.8937 156.822 26.7347C156.834 29.3812 157.709 31.6032 159.445 33.4C161.133 35.1847 163.273 36.0829 165.865 36.0949C167.944 36.0949 169.674 35.4275 171.056 34.0919C172.511 32.708 173.447 30.8021 173.863 28.3732H173.276Z" fill="white"/>
<path fill-rule="evenodd" clip-rule="evenodd" d="M190.221 31.3965C189.818 31.1293 189.414 31.0445 189.011 31.1417C188.632 31.2145 188.308 31.4024 188.039 31.7059C187.745 32.0094 187.495 32.4165 187.287 32.9264C186.883 33.922 186.614 34.4805 186.48 34.602C186.052 35.0024 185.342 35.2028 184.352 35.2028C181.918 35.2028 180.69 34.4134 180.665 32.8351C180.664 32.7859 180.671 32.7373 180.673 32.6883H180.669V29.5172C180.667 29.5186 180.666 29.5197 180.665 29.5209V24.8043C180.665 22.9583 181.001 21.4349 181.674 20.2329C182.322 19.0429 183.258 18.4488 184.48 18.4488C185.483 18.4361 186.248 18.8126 186.773 19.5774C187.275 20.3427 187.58 21.2218 187.58 22.218C187.58 27.1713 184.04 27.2187 183.636 27.4402C185.122 27.7453 185.805 27.641 187.709 27.2449C190.646 26.633 191.964 24.5246 191.964 21.9997C191.964 20.4334 191.445 19.1889 190.405 18.2663C189.341 17.3559 188.021 16.8096 186.443 16.8096C181.079 16.8096 176.318 20.9492 176.318 26.3102V29.2477C176.306 30.8746 176.556 32.1857 177.07 33.1811C178.048 35.1239 180.475 36.0949 184.352 36.0949C186.639 36.0706 188.436 35.5308 189.745 34.4744C190.54 33.8307 190.906 33.1693 190.845 32.4892C190.772 32.0159 190.564 31.6516 190.221 31.3965Z" fill="white"/>
<path fill-rule="evenodd" clip-rule="evenodd" d="M78.5398 31.3965C78.1362 31.1293 77.7328 31.0445 77.3292 31.1417C76.9503 31.2145 76.6262 31.4024 76.3571 31.7059C76.0636 32.0094 75.8132 32.4165 75.6051 32.9264C75.2013 33.922 74.9326 34.4805 74.7979 34.602C74.3701 35.0024 73.6606 35.2028 72.6702 35.2028C70.2369 35.2028 69.008 34.4134 68.9832 32.8351C68.9824 32.7859 68.9895 32.7373 68.9913 32.6883H68.987V29.5172C68.9858 29.5186 68.9844 29.5197 68.9832 29.5209V24.8043C68.9832 22.9583 69.3196 21.4349 69.9921 20.2329C70.6405 19.0429 71.5761 18.4488 72.7986 18.4488C73.8014 18.4363 74.5659 18.8126 75.0913 19.5774C75.593 20.3427 75.8986 21.2218 75.8986 22.218C75.8986 27.1713 72.3586 27.2187 71.9547 27.4402C73.4404 27.7453 74.1236 27.641 76.027 27.2449C78.9642 26.633 80.2823 24.5246 80.2823 21.9997C80.2823 20.4334 79.7629 19.1889 78.7233 18.2663C77.6595 17.3559 76.3398 16.8096 74.7612 16.8096C69.3973 16.8096 64.6362 20.9492 64.6362 26.3102V29.2477C64.6241 30.8746 64.8743 32.1857 65.3881 33.1811C66.3667 35.1239 68.7936 36.0949 72.6702 36.0949C74.957 36.0706 76.7547 35.5308 78.0631 34.4744C78.858 33.8307 79.225 33.1693 79.1636 32.4892C79.0901 32.0159 78.8824 31.6516 78.5398 31.3965Z" fill="white"/>
<path fill-rule="evenodd" clip-rule="evenodd" d="M119.251 21.5083C119.655 21.7754 120.058 21.8602 120.462 21.763C120.841 21.6902 121.165 21.5024 121.434 21.1986C121.727 20.8951 121.978 20.4881 122.186 19.9784C122.59 18.9827 122.858 18.4243 122.993 18.3027C123.421 17.9024 124.131 17.7019 125.121 17.7019C127.554 17.7019 128.783 18.4911 128.808 20.0696C128.809 20.1186 128.802 20.1672 128.8 20.2162H128.804V23.3875C128.805 23.386 128.807 23.385 128.808 23.3838V28.1002C128.808 29.9464 128.471 31.4698 127.799 32.6718C127.151 33.8618 126.215 34.4559 124.992 34.4559C123.99 34.4685 123.225 34.0921 122.7 33.3273C122.198 32.562 121.892 31.6829 121.892 30.6865C121.892 25.7332 125.433 25.686 125.836 25.4645C124.351 25.1592 123.667 25.2637 121.764 25.6599C118.827 26.2717 117.509 28.3799 117.509 30.905C117.509 32.4713 118.028 33.7158 119.068 34.6384C120.132 35.5487 121.451 36.0949 123.03 36.0949C128.394 36.0949 133.155 31.9555 133.155 26.5945V23.657C133.167 22.0302 132.917 20.719 132.403 19.7236C131.424 17.7808 128.997 16.8096 125.121 16.8096C122.834 16.834 121.037 17.374 119.728 18.4304C118.933 19.074 118.566 19.7354 118.628 20.4155C118.701 20.8886 118.909 21.2531 119.251 21.5083Z" fill="white"/>
<path fill-rule="evenodd" clip-rule="evenodd" d="M90.1221 19.3541C90.7823 18.1158 91.7056 17.5032 92.8917 17.515C93.8089 17.527 94.5486 17.8126 95.1111 18.3705C96.1387 19.4395 96.658 21.066 96.6703 23.2516C96.6703 24.9511 96.2853 26.3415 95.5149 27.4219C94.8054 28.5509 93.931 29.1152 92.8917 29.1152C91.8033 29.1152 90.8984 28.5874 90.177 27.5309C89.4801 26.4991 89.1316 25.1454 89.1316 23.4699C89.1316 21.8672 89.4619 20.4957 90.1221 19.3541ZM87.7559 28.5509C87.7525 28.5526 87.7495 28.5544 87.7462 28.5562L88.2901 28.8965C89.5776 29.5392 91.0805 29.862 92.8002 29.862C95.148 29.85 97.1167 29.2368 98.7064 28.0225C100.369 26.6629 101.201 25.0726 101.201 23.2516C101.201 21.6733 100.755 20.3741 99.862 19.3541C98.5756 17.7284 96.0531 16.7861 93.0201 16.7861C90.5376 16.7861 88.5324 17.4237 87.0039 18.6985C85.4263 19.9614 84.6377 21.5395 84.6377 23.4335C84.6377 24.4779 84.9311 25.4491 85.518 26.3474C86.0927 27.2458 86.8387 27.9802 87.7559 28.5509Z" fill="white"/>
<path fill-rule="evenodd" clip-rule="evenodd" d="M152.782 31.597V22.9465C152.782 21.5905 152.61 21.0372 152.389 20.4427C152.172 19.8545 151.238 17.3571 148.067 17.5861C146.622 17.6905 145.886 18.4601 145.61 19.1512C146.123 19.2295 146.76 19.2804 147.408 20.0691C148.08 20.8585 148.41 21.8174 148.398 22.9465V31.597C148.41 34.1465 147.548 35.4395 145.812 35.4761V36.095H155.332V35.4761C153.632 35.4395 152.782 34.1465 152.782 31.597Z" fill="white"/>
<path fill-rule="evenodd" clip-rule="evenodd" d="M113.174 31.7425V17.3374L106.148 18.3574V18.9946C107.86 18.6914 108.71 19.5411 108.698 21.5441V31.7425C108.71 34.1343 107.86 35.3728 106.148 35.4574V36.095H115.723V35.4574C114.036 35.3608 113.186 34.1225 113.174 31.7425Z" fill="white"/>
<path fill-rule="evenodd" clip-rule="evenodd" d="M142.644 31.7425V17.3374L135.619 18.3574V18.9946C137.331 18.6914 138.181 19.5411 138.169 21.5441V31.7425C138.181 34.1343 137.331 35.3728 135.619 35.4574V36.095H145.194V35.4574C143.507 35.3608 142.657 34.1225 142.644 31.7425Z" fill="white"/>
<path fill-rule="evenodd" clip-rule="evenodd" d="M112.45 12.9197L110.601 10.387L108.751 12.9197L110.601 15.4523L112.45 12.9197Z" fill="white"/>
<path fill-rule="evenodd" clip-rule="evenodd" d="M107.372 43.3426H107.76C108.919 43.3426 109.498 42.8976 109.498 42.008C109.498 41.1745 108.935 40.7576 107.807 40.7576H107.372V43.3426ZM108.894 44.2764L111.404 47.7475H109.908L107.592 44.4133H107.372V47.7475H106.148V39.6023H107.582C108.653 39.6023 109.426 39.8047 109.902 40.209C110.427 40.6591 110.69 41.2536 110.69 41.9921C110.69 42.5689 110.525 43.0648 110.196 43.4797C109.867 43.8948 109.433 44.1601 108.894 44.2764Z" fill="white"/>
<path fill-rule="evenodd" clip-rule="evenodd" d="M119.169 40.7576H115.92V42.7146H119.075V43.87H115.92V46.592H119.169V47.7473H114.696V39.6023H119.169V40.7576Z" fill="white"/>
<path fill-rule="evenodd" clip-rule="evenodd" d="M127.654 44.7991L126.452 42.1933L125.192 44.7991H127.654ZM128.153 45.886H124.683L123.78 47.7473H122.462L126.473 39.6023L130.342 47.7473H129.003L128.153 45.886Z" fill="white"/>
<path fill-rule="evenodd" clip-rule="evenodd" d="M134.858 39.6023V46.592H137.242V47.7473H133.635V39.6023H134.858Z" fill="white"/>
<path fill-rule="evenodd" clip-rule="evenodd" d="M150.136 40.7576H146.886V42.7146H150.042V43.87H146.886V46.592H150.136V47.7473H145.663V39.6023H150.136V40.7576Z" fill="white"/>
<path fill-rule="evenodd" clip-rule="evenodd" d="M158.415 40.9245L157.423 41.494C157.238 41.182 157.061 40.9786 156.893 40.8837C156.718 40.7751 156.492 40.7209 156.216 40.7209C155.876 40.7209 155.594 40.8141 155.37 41.0006C155.146 41.1835 155.034 41.4141 155.034 41.6919C155.034 42.0753 155.329 42.3835 155.916 42.6172L156.725 42.9375C157.383 43.1954 157.864 43.5098 158.168 43.8808C158.473 44.252 158.625 44.707 158.625 45.246C158.625 45.968 158.377 46.5647 157.88 47.0356C157.379 47.5103 156.758 47.7475 156.016 47.7475C155.312 47.7475 154.732 47.5457 154.273 47.1424C153.822 46.7391 153.54 46.1714 153.428 45.4392L154.667 45.1746C154.723 45.6357 154.821 45.9544 154.961 46.1307C155.213 46.4696 155.58 46.6392 156.063 46.6392C156.445 46.6392 156.762 46.5153 157.014 46.2678C157.266 46.0205 157.392 45.7071 157.392 45.3275C157.392 45.1746 157.37 45.0351 157.326 44.9079C157.282 44.7808 157.214 44.6637 157.121 44.5571C157.029 44.4505 156.909 44.3504 156.762 44.2571C156.615 44.1641 156.44 44.0749 156.237 43.9902L155.454 43.6748C154.345 43.2208 153.79 42.5563 153.79 41.682C153.79 41.0923 154.023 40.5989 154.488 40.2023C154.954 39.8024 155.533 39.6023 156.226 39.6023C157.161 39.6023 157.89 40.0431 158.415 40.9245Z" fill="white"/>
<path fill-rule="evenodd" clip-rule="evenodd" d="M165.005 40.7576V47.7473H163.782V40.7576H161.918V39.6023H166.863V40.7576H165.005Z" fill="white"/>
<path fill-rule="evenodd" clip-rule="evenodd" d="M173.799 44.7991L172.597 42.1933L171.337 44.7991H173.799ZM174.298 45.886H170.827L169.924 47.7473H168.606L172.617 39.6023L176.487 47.7473H175.148L174.298 45.886Z" fill="white"/>
<path fill-rule="evenodd" clip-rule="evenodd" d="M181.317 40.7576V47.7473H180.093V40.7576H178.229V39.6023H183.175V40.7576H181.317Z" fill="white"/>
<path fill-rule="evenodd" clip-rule="evenodd" d="M190.941 40.7576H187.691V42.7146H190.846V43.87H187.691V46.592H190.941V47.7473H186.468V39.6023H190.941V40.7576Z" fill="white"/>
<path fill-rule="evenodd" clip-rule="evenodd" d="M100.485 42.8715C100.191 43.3745 99.8061 43.8171 99.3292 44.2011C97.3359 45.6956 94.8595 46.4827 91.9002 46.5622C88.9655 46.6412 86.8195 46.2116 85.462 45.2727C84.1047 44.3331 83.4502 43.0436 83.4994 41.4033C83.536 40.0277 83.9823 38.8637 84.8382 37.9113C85.4741 38.3347 86.0489 38.6258 86.5627 38.7844C87.0761 38.9695 87.8343 39.0624 88.8369 39.0624H97.88C98.8582 39.0624 99.6161 39.2807 100.154 39.7169C100.619 40.0873 100.864 40.5803 100.888 41.1952C100.913 41.8102 100.778 42.3689 100.485 42.8715ZM96.2659 33.9234H88.7821C87.2657 33.9234 86.3792 33.4475 86.1224 32.4948C86.035 32.1545 86.0536 31.7943 86.1785 31.4138C86.2803 31.103 86.4707 30.8353 86.6974 30.6148C87.037 30.2841 87.526 29.83 87.5669 29.7923L86.9484 29.3707C86.9524 29.3683 86.9556 29.3662 86.9595 29.364C86.9195 29.3369 86.8846 29.3046 86.8452 29.2769L85.7467 30.1019C84.2822 31.1687 83.4039 32.4075 83.1324 33.8245C83.0343 34.3399 83.0682 34.9287 83.2331 35.59C83.3983 36.2518 83.7496 36.8864 84.288 37.4949C83.2242 38.6323 82.6799 39.9814 82.6555 41.5424C82.6309 42.4946 82.8142 43.3873 83.2059 44.221C83.5971 45.0543 84.2331 45.7289 85.1135 46.2447C86.8496 47.2763 89.1365 47.7655 91.9735 47.7128C94.8351 47.6597 97.3052 47.0384 99.3843 45.8479C102.062 44.3134 103.401 42.2963 103.401 39.7961C103.377 35.8814 100.998 33.9234 96.2659 33.9234Z" fill="white"/>
</svg>
