<?xml version="1.0" encoding="UTF-8"?>
<svg id="Layer_1" xmlns="http://www.w3.org/2000/svg" version="1.1" xmlns:xlink="http://www.w3.org/1999/xlink" viewBox="0 0 192 48">
  <!-- Generator: Adobe Illustrator 29.3.0, SVG Export Plug-In . SVG Version: 2.1.0 Build 146)  -->
  <defs>
    <style>
      .st0 {
        fill: url(#linear-gradient);
      }
    </style>
    <linearGradient id="linear-gradient" x1=".7" y1="26" x2="191.3" y2="26" gradientTransform="translate(0 50) scale(1 -1)" gradientUnits="userSpaceOnUse">
      <stop offset="0" stop-color="#eee0c0"/>
      <stop offset="1" stop-color="#c2a878"/>
    </linearGradient>
  </defs>
  <path class="st0" d="M32.5,31.1c1.1,2.5,2.8,3.8,5.2,3.9v1.1h-14.8v-1.1c2.8,0,3.7-1.3,2.6-3.9l-2.8-7h0l-.4-1h0c0-.1-.1-.3-.2-.6l-2.2-5.3h0c-.3-.8-.7-1.8-1.1-2.8h0l-2-4.9c-.2-.5-.4-1.1-.7-1.6h0c-3,7.8-8.9,23.2-8.9,23.2-1,2.6-.2,3.9,2.7,3.9v1.1H.7v-1.1c2.5,0,4.3-1.3,5.3-3.9L16.1,4.8h0S17.9,0,17.9,0h1.7l12.9,31.1M16.1,20.9l-3.2,4.4,3.2,4.4h0l3.2-4.4-3.2-4.4ZM46.4,17.2v-8.7l-7,1.1v.7c1.8-.3,2.7.6,2.6,2.7v18.7c0,2.6-.9,3.8-2.6,3.9v.6h9.6v-.6c-1.7,0-2.6-1.3-2.6-3.9v-14.3ZM59.1,17.2v-8.7l-7,1.1v.7c1.8-.3,2.7.6,2.6,2.7v18.7c0,2.6-.9,3.8-2.6,3.9v.6h9.6v-.6c-1.7,0-2.6-1.3-2.6-3.9v-14.3ZM172.7,28.3c-1,3.9-2.9,5.8-5.6,6-1.8,0-3.2-.7-4.3-2.2-1.1-1.5-1.7-3.3-1.8-5.5,0-1.4.1-2.8.5-4.1.4-1.3,1-2.5,1.8-3.4.8-1,1.7-1.4,2.8-1.4s1.7.2,2.1.6c.2.1.4.7.7,1.6.2.6.4,1.1.7,1.4.3.3.6.5,1,.6.4,0,.8,0,1.2-.2.4-.2.6-.6.7-1.1,0-.7-.3-1.4-1.1-2.1-1.4-1.1-3.3-1.7-5.5-1.7s-5.3,1-6.9,2.9c-1.6,1.8-2.4,4.2-2.4,7,0,2.6.9,4.9,2.6,6.7,1.7,1.8,3.8,2.7,6.4,2.7,2.1,0,3.8-.7,5.2-2,1.4-1.4,2.4-3.3,2.8-5.7h-.6,0ZM189.5,31.4c-.4-.3-.8-.4-1.2-.3-.4,0-.7.3-1,.6-.3.3-.5.7-.7,1.2-.4,1-.7,1.6-.8,1.7-.4.4-1.1.6-2.1.6-2.4,0-3.6-.8-3.7-2.4h0v-3.3h0v-4.7c0-1.8.3-3.4,1-4.6.6-1.2,1.6-1.8,2.8-1.8s1.8.4,2.3,1.1c.5.8.8,1.6.8,2.6,0,5-3.5,5-3.9,5.2,1.5.3,2.1.2,4-.2,2.9-.6,4.2-2.7,4.2-5.2s-.5-2.8-1.6-3.7c-1.1-.9-2.4-1.5-3.9-1.5-5.3,0-10.1,4.1-10.1,9.5v2.9c0,1.6.2,2.9.7,3.9,1,1.9,3.4,2.9,7.2,2.9,2.3,0,4-.6,5.4-1.6.8-.6,1.1-1.3,1.1-2,0-.5-.3-.8-.6-1.1M78.6,31.4c-.4-.3-.8-.4-1.2-.3-.4,0-.7.3-1,.6-.3.3-.5.7-.7,1.2-.4,1-.7,1.6-.8,1.7-.4.4-1.1.6-2.1.6-2.4,0-3.6-.8-3.7-2.4h0v-3.3h0v-4.7c0-1.8.3-3.4,1-4.6.6-1.2,1.6-1.8,2.8-1.8s1.8.4,2.3,1.1c.5.8.8,1.6.8,2.6,0,5-3.5,5-3.9,5.2,1.5.3,2.1.2,4-.2,2.9-.6,4.2-2.7,4.2-5.2s-.5-2.8-1.6-3.7c-1.1-.9-2.4-1.5-3.9-1.5-5.3,0-10.1,4.1-10.1,9.5v2.9c0,1.6.2,2.9.7,3.9,1,1.9,3.4,2.9,7.2,2.9,2.3,0,4-.6,5.4-1.6.8-.6,1.1-1.3,1.1-2,0-.5-.3-.8-.6-1.1M119,21.5c.4.3.8.4,1.2.3.4,0,.7-.3,1-.6.3-.3.5-.7.7-1.2.4-1,.7-1.6.8-1.7.4-.4,1.1-.6,2.1-.6,2.4,0,3.6.8,3.7,2.4h0v3.3h0v4.7c0,1.8-.3,3.4-1,4.6-.6,1.2-1.6,1.8-2.8,1.8s-1.8-.4-2.3-1.1c-.5-.8-.8-1.6-.8-2.6,0-5,3.5-5,3.9-5.2-1.5-.3-2.2-.2-4,.2-2.9.6-4.2,2.7-4.2,5.2s.5,2.8,1.6,3.7c1.1.9,2.4,1.5,3.9,1.5,5.3,0,10.1-4.1,10.1-9.5v-2.9c0-1.6-.2-2.9-.7-3.9-1-1.9-3.4-2.9-7.2-2.9-2.3,0-4,.6-5.4,1.6-.8.6-1.1,1.3-1.1,2,0,.5.3.8.6,1.1M87.7,28.5c-.9-.6-1.6-1.3-2.2-2.2-.6-.9-.9-1.9-.9-2.9,0-1.9.8-3.5,2.3-4.7,1.5-1.3,3.5-1.9,6-1.9s5.5.9,6.8,2.6c.9,1,1.3,2.3,1.3,3.9s-.8,3.4-2.5,4.8c-1.6,1.2-3.5,1.8-5.9,1.8-1.7,0-3.2-.3-4.5-1l-.5-.3h0M90.1,19.3c-.6,1.1-1,2.5-1,4.1s.4,3,1,4.1c.7,1.1,1.6,1.6,2.7,1.6s1.9-.6,2.6-1.7c.8-1.1,1.1-2.5,1.1-4.2s-.5-3.8-1.6-4.9c-.6-.6-1.3-.9-2.2-.9s-2.1.6-2.8,1.8M152.3,31.6v-8.7c0-1.3-.2-1.9-.4-2.5-.2-.6-1.1-3.1-4.3-2.9-1.4.1-2.2.9-2.4,1.6.5,0,1.1.1,1.8.9.7.8,1,1.8,1,2.9v8.7c0,2.6-.9,3.8-2.6,3.9v.6h9.4v-.6c-1.7,0-2.5-1.3-2.5-3.9M113,31.7v-14.4l-7,1v.6c1.7-.3,2.6.5,2.5,2.6v10.2c0,2.4-.8,3.6-2.5,3.7v.6h9.5v-.6c-1.7,0-2.5-1.3-2.5-3.7M142.2,31.7v-14.4l-7,1v.6c1.7-.3,2.6.5,2.5,2.6v10.2c0,2.4-.8,3.6-2.5,3.7v.6h9.5v-.6c-1.7,0-2.5-1.3-2.5-3.7M112.2,12.9l-1.8-2.5-1.8,2.5,1.8,2.5,1.8-2.5ZM96.2,33.9c4.7,0,7.1,2,7.1,5.9,0,2.5-1.3,4.5-4,6-2.1,1.2-4.5,1.8-7.4,1.9-2.8,0-5.1-.4-6.8-1.5-.9-.5-1.5-1.2-1.9-2-.4-.8-.6-1.7-.6-2.7,0-1.6.6-2.9,1.6-4-.5-.6-.9-1.2-1.1-1.9-.2-.7-.2-1.3,0-1.8.3-1.4,1.1-2.7,2.6-3.7l1.1-.8s0,0,.1,0h0l.6.4s-.5.5-.9.8c-.2.2-.4.5-.5.8-.1.4-.1.7,0,1.1.3,1,1.1,1.4,2.6,1.4h7.4M100.4,42.8c.3-.5.4-1.1.4-1.7,0-.6-.3-1.1-.7-1.5-.5-.4-1.3-.6-2.3-.6h-9c-1,0-1.8,0-2.3-.3-.5-.2-1.1-.4-1.7-.9-.9.9-1.3,2.1-1.3,3.5,0,1.6.6,2.9,1.9,3.9,1.3.9,3.5,1.4,6.4,1.3,2.9,0,5.4-.9,7.4-2.4.5-.4.9-.8,1.1-1.3M107.2,40.9h.4c1.1,0,1.7.4,1.7,1.3s-.6,1.3-1.8,1.3h-.4v-2.6h0ZM108.7,44.4c.5-.1,1-.4,1.3-.8.3-.4.5-.9.5-1.5s-.3-1.3-.8-1.8c-.5-.4-1.3-.6-2.3-.6h-1.4v8.2h1.2v-3.3h.2l2.3,3.3h1.5l-2.5-3.5M119.2,39.7h-4.5v8.2h4.5v-1.2h-3.3v-2.7h3.2v-1.2h-3.2v-2h3.3v-1.2h0ZM124.8,44.7l1.3-2.8,1.2,2.8h-2.5ZM128.6,47.9h1.3l-3.9-8.7-4,8.7h1.3l.9-2h3.5l.9,2h0ZM133.2,39.7v8.2h3.6v-1.2h-2.4v-7h-1.2ZM150.2,39.7h-4.5v8.2h4.5v-1.2h-3.3v-2.7h3.2v-1.2h-3.2v-2h3.3v-1.2h0ZM158.4,40.9c-.5-.9-1.3-1.4-2.2-1.4s-1.3.2-1.8.6c-.5.4-.7.9-.7,1.5,0,.9.6,1.6,1.7,2.1l.8.3c.2,0,.4.2.5.3.1,0,.3.2.4.3s.2.2.2.4c0,.1,0,.3,0,.4,0,.4-.1.7-.4,1-.3.3-.6.4-1,.4s-.9-.2-1.1-.5c-.1-.2-.2-.5-.3-1l-1.3.3c.1.8.4,1.3.9,1.8.5.4,1.1.6,1.8.6s1.4-.2,1.9-.7c.5-.5.8-1.1.8-1.9s-.1-1-.5-1.4-.8-.7-1.5-1l-.8-.3c-.6-.2-.9-.6-.9-1s.1-.5.3-.7.5-.3.9-.3.5,0,.7.2c.2,0,.4.3.5.6l1-.6M166.3,40.9v-1.2h-5v1.2h1.9v7h1.2v-7h1.9ZM170.7,44.7l1.3-2.8,1.2,2.8h-2.5ZM174.6,47.9h1.3l-3.9-8.7-4,8.7h1.3l.9-2h3.5l.9,2h0ZM182.6,40.9v-1.2h-5v1.2h1.9v7h1.2v-7h1.9ZM190.1,39.7h-4.5v8.2h4.5v-1.2h-3.3v-2.7h3.2v-1.2h-3.2v-2h3.3v-1.2h0Z"/>
</svg>