<svg xmlns="http://www.w3.org/2000/svg" width="22.503" height="22.503" viewBox="0 0 22.503 22.503">
  <g id="arrow-up-right" transform="translate(-5.623 -7.873)">
    <path id="Path_4" data-name="Path 4" d="M14.625,9A1.125,1.125,0,0,1,15.75,7.875H27A1.125,1.125,0,0,1,28.125,9V20.25a1.125,1.125,0,0,1-2.25,0V10.125H15.75A1.125,1.125,0,0,1,14.625,9Z" fill="#fff" fill-rule="evenodd"/>
    <path id="Path_5" data-name="Path 5" d="M27.8,8.2a1.125,1.125,0,0,1,0,1.593L7.546,30.047a1.126,1.126,0,0,1-1.593-1.593L26.2,8.2a1.125,1.125,0,0,1,1.593,0Z" fill="#fff" fill-rule="evenodd"/>
  </g>
</svg>
