<svg width="64" height="20" viewBox="0 0 64 20" fill="none" xmlns="http://www.w3.org/2000/svg">
<path d="M7.9367 7.14302V9.25947H13.0162C12.8574 10.4764 12.4342 11.323 11.8521 11.9579C11.1114 12.6987 9.94733 13.5453 7.88379 13.5453C4.76202 13.5453 2.27519 11.0055 2.27519 7.83087C2.27519 4.65619 4.76202 2.16936 7.9367 2.16936C9.62986 2.16936 10.8468 2.85721 11.7992 3.70379L13.2807 2.22227C12.0109 0.952403 10.3177 0 7.9367 0C3.65088 0 0 3.54506 0 7.83087C0 12.1167 3.59797 15.6617 7.9367 15.6617C10.2648 15.6617 12.0109 14.921 13.3866 13.4924C14.8152 12.0638 15.2385 10.1061 15.2385 8.4658C15.2385 7.9896 15.1855 7.5134 15.1326 7.14302H7.9367Z" fill="white"/>
<path d="M21.5873 5.39636C18.783 5.39636 16.5078 7.51281 16.5078 10.4758C16.5078 13.386 18.783 15.5553 21.5873 15.5553C24.3916 15.5553 26.6668 13.4389 26.6668 10.4758C26.6668 7.51281 24.3916 5.39636 21.5873 5.39636ZM21.5873 13.4918C20.0529 13.4918 18.7301 12.2219 18.7301 10.4229C18.7301 8.62395 20.0529 7.35408 21.5873 7.35408C23.1217 7.35408 24.4445 8.62395 24.4445 10.4229C24.4445 12.2748 23.1217 13.4918 21.5873 13.4918Z" fill="white"/>
<path d="M46.4037 6.5075H46.3508C45.8746 5.92548 44.9222 5.39636 43.7052 5.39636C41.1655 5.39636 38.9961 7.61864 38.9961 10.4758C38.9961 13.3331 41.2184 15.5553 43.7052 15.5553C44.9222 15.5553 45.8746 15.0262 46.3508 14.3913H46.4037V15.0791C46.4037 17.0368 45.3454 18.0422 43.7052 18.0422C42.3295 18.0422 41.4829 17.0898 41.1655 16.2432L39.2607 17.0368C39.8427 18.3596 41.2713 19.9999 43.7581 19.9999C46.3508 19.9999 48.573 18.4655 48.573 14.7088V5.66092H46.4566V6.5075H46.4037ZM43.8639 13.4918C42.3295 13.4918 41.1655 12.169 41.1655 10.4229C41.1655 8.62395 42.3295 7.35408 43.8639 7.35408C45.3984 7.35408 46.5624 8.67686 46.5624 10.4229C46.5624 12.2219 45.3984 13.4918 43.8639 13.4918Z" fill="white"/>
<path d="M32.9105 5.39636C30.1062 5.39636 27.8311 7.51281 27.8311 10.4758C27.8311 13.386 30.1062 15.5553 32.9105 15.5553C35.7148 15.5553 37.99 13.4389 37.99 10.4758C37.9371 7.51281 35.6619 5.39636 32.9105 5.39636ZM32.9105 13.4918C31.3761 13.4918 30.0533 12.2219 30.0533 10.4229C30.0533 8.62395 31.3761 7.35408 32.9105 7.35408C34.445 7.35408 35.7678 8.62395 35.7678 10.4229C35.7678 12.2748 34.445 13.4918 32.9105 13.4918Z" fill="white"/>
<path d="M50.2676 0.211914H52.4369V15.5033H50.2676V0.211914Z" fill="white"/>
<path d="M59.1553 13.4922C58.0442 13.4922 57.2505 12.9631 56.7214 11.9578L63.494 9.15349L63.2824 8.57146C62.8591 7.46032 61.5892 5.34387 58.9437 5.34387C56.351 5.34387 54.1816 7.40741 54.1816 10.4234C54.1816 13.2806 56.2981 15.5028 59.2082 15.5028C61.5363 15.5028 62.8591 14.0742 63.3882 13.2806L61.695 12.1165C61.0601 12.9631 60.3194 13.4922 59.1553 13.4922ZM58.9966 7.30159C59.8961 7.30159 60.6368 7.77779 60.9014 8.41273L56.351 10.3175C56.351 8.14817 57.8854 7.30159 58.9966 7.30159Z" fill="white"/>
</svg>