<?xml version="1.0" encoding="utf-8"?>
<!-- Generator: Adobe Illustrator 27.9.0, SVG Export Plug-In . SVG Version: 6.00 Build 0)  -->
<svg version="1.1" xmlns="http://www.w3.org/2000/svg" xmlns:xlink="http://www.w3.org/1999/xlink" x="0px" y="0px"
	 viewBox="0 0 95 86.9" style="enable-background:new 0 0 95 86.9;" fill="#fff" xml:space="preserve">
<g id="Layer_2">
</g>
<g id="Layer_1">
	<g>
		<path d="M4.5,16.7h13.4c1.8,4.4,6.1,7.6,11.2,7.6s9.4-3.1,11.2-7.6h50.2c2.5,0,4.5-2,4.5-4.5s-2-4.5-4.5-4.5H40.3
			C38.5,3.1,34.2,0,29.1,0s-9.4,3.1-11.2,7.6H4.5C2,7.6,0,9.6,0,12.1S2,16.7,4.5,16.7z"/>
		<path d="M90.5,39H77.1c-1.8-4.4-6.1-7.6-11.2-7.6s-9.4,3.1-11.2,7.6H4.5C2,39,0,41,0,43.5S2,48,4.5,48h50.2
			c1.8,4.4,6.1,7.6,11.2,7.6s9.4-3.1,11.2-7.6h13.4c2.5,0,4.5-2,4.5-4.5S93,39,90.5,39z"/>
		<path d="M90.5,70.3H40.3c-1.8-4.4-6.1-7.6-11.2-7.6s-9.4,3.1-11.2,7.6H4.5c-2.5,0-4.5,2-4.5,4.5s2,4.5,4.5,4.5h13.4
			c1.8,4.4,6.1,7.6,11.2,7.6s9.4-3.1,11.2-7.6h50.2c2.5,0,4.5-2,4.5-4.5C95,72.4,93,70.3,90.5,70.3z"/>
	</g>
</g>
</svg>
