<svg width="51" height="9" viewBox="0 0 51 9" fill="none" xmlns="http://www.w3.org/2000/svg">
<path d="M4.16623 7.19556C4.24211 7.15096 4.33629 7.15096 4.41217 7.19556L6.62406 8.49666C6.80722 8.60442 7.0306 8.44102 6.98333 8.23387L6.42248 5.77471C6.40236 5.68635 6.43315 5.59411 6.50248 5.53556L8.43013 3.9078C8.5951 3.7684 8.5094 3.49919 8.29425 3.48101L5.7586 3.2661C5.6706 3.25858 5.59351 3.2038 5.55763 3.12295L4.51545 0.77821C4.42939 0.584634 4.15386 0.586815 4.07083 0.781725L3.07508 3.11979C3.03993 3.20234 2.96199 3.2587 2.87253 3.26634L0.339429 3.48101C0.124277 3.49919 0.0385815 3.7684 0.203552 3.9078L2.12913 5.53386C2.19956 5.59326 2.2301 5.68744 2.20817 5.77689L1.60732 8.22333C1.55617 8.43157 1.78077 8.59884 1.96562 8.49011L4.16623 7.19556Z" fill="yellow"/>
<path d="M14.6155 7.19556C14.6914 7.15096 14.7855 7.15096 14.8614 7.19556L17.0732 8.49666C17.2565 8.60442 17.4798 8.44102 17.4325 8.23387L16.8717 5.77471C16.8515 5.68635 16.8825 5.59411 16.9517 5.53556L18.8793 3.9078C19.0444 3.7684 18.9586 3.49919 18.7434 3.48101L16.2079 3.2661C16.1198 3.25858 16.0427 3.2038 16.0068 3.12295L14.9647 0.77821C14.8787 0.584634 14.6032 0.586815 14.5201 0.781725L13.5243 3.11979C13.4891 3.20234 13.4112 3.2587 13.3217 3.26634L10.7887 3.48101C10.5736 3.49919 10.4878 3.7684 10.6527 3.9078L12.5783 5.53386C12.6487 5.59326 12.6794 5.68744 12.6573 5.77689L12.0565 8.22333C12.0053 8.43157 12.2299 8.59884 12.4148 8.49011L14.6155 7.19556Z" fill="yellow"/>
<path d="M25.0637 7.19556C25.1396 7.15096 25.2336 7.15096 25.3095 7.19556L27.5215 8.49666C27.7047 8.60442 27.9281 8.44102 27.8808 8.23387L27.3199 5.77471C27.2997 5.68635 27.3306 5.59411 27.3998 5.53556L29.3276 3.9078C29.4925 3.7684 29.4067 3.49919 29.1916 3.48101L26.6561 3.2661C26.5679 3.25858 26.491 3.2038 26.455 3.12295L25.4129 0.77821C25.3268 0.584634 25.0513 0.586815 24.9683 0.781725L23.9725 3.11979C23.9373 3.20234 23.8593 3.2587 23.7699 3.26634L21.2369 3.48101C21.0217 3.49919 20.936 3.7684 21.101 3.9078L23.0266 5.53386C23.0969 5.59326 23.1276 5.68744 23.1056 5.77689L22.5046 8.22333C22.4535 8.43157 22.6782 8.59884 22.8631 8.49011L25.0637 7.19556Z" fill="yellow"/>
<path d="M35.511 7.19556C35.5869 7.15096 35.681 7.15096 35.7569 7.19556L37.9688 8.49666C38.152 8.60442 38.3753 8.44102 38.328 8.23387L37.7672 5.77471C37.747 5.68635 37.7778 5.59411 37.8472 5.53556L39.7748 3.9078C39.9398 3.7684 39.8541 3.49919 39.6389 3.48101L37.1034 3.2661C37.0153 3.25858 36.9382 3.2038 36.9023 3.12295L35.8601 0.77821C35.7742 0.584634 35.4987 0.586815 35.4157 0.781725L34.4198 3.11979C34.3846 3.20234 34.3067 3.2587 34.2172 3.26634L31.6842 3.48101C31.4691 3.49919 31.3833 3.7684 31.5482 3.9078L33.4738 5.53386C33.5442 5.59326 33.5748 5.68744 33.5529 5.77689L32.952 8.22333C32.9009 8.43157 33.1255 8.59884 33.3103 8.49011L35.511 7.19556Z" fill="yellow"/>
<path d="M45.9571 7.19556C46.0322 7.15096 46.1268 7.15096 46.2019 7.19556L48.414 8.49666C48.5971 8.60442 48.8213 8.44102 48.7741 8.23387L48.2128 5.77471C48.1922 5.68635 48.2237 5.59411 48.2928 5.53556L50.2201 3.9078C50.385 3.7684 50.3001 3.49919 50.0843 3.48101L47.5486 3.2661C47.4613 3.25858 47.3837 3.2038 47.3474 3.12295L46.3062 0.77821C46.2201 0.584634 45.9437 0.586815 45.8613 0.781725L44.8649 3.11979C44.8298 3.20234 44.7522 3.2587 44.6625 3.26634L42.1292 3.48101C41.9146 3.49919 41.8286 3.7684 41.9934 3.9078L43.9195 5.53386C43.9898 5.59326 44.0201 5.68744 43.9983 5.77689L43.3971 8.22333C43.3461 8.43157 43.5704 8.59884 43.7559 8.49011L45.9571 7.19556Z" fill="yellow"/>
</svg>