<?xml version="1.0" encoding="utf-8"?>
<!-- Generator: Adobe Illustrator 28.1.0, SVG Export Plug-In . SVG Version: 6.00 Build 0)  -->
<svg version="1.1" id="Layer_1" xmlns="http://www.w3.org/2000/svg" xmlns:xlink="http://www.w3.org/1999/xlink" x="0px" y="0px"
	 viewBox="0 0 400 600" style="enable-background:new 0 0 400 600;" xml:space="preserve">
<style type="text/css">
	.st0{fill:#0A0A0A;}
	.st1{fill:#FFFFFF;}
</style>
<g>
	<rect x="-5.7" y="-5.8" class="st0" width="411.5" height="612.8"/>
</g>
<g>
	<path class="st1" d="M231.1,290.4l-30.3-72.9h-4l-4.3,11.3l0-0.1l-23.4,61.6c-2.4,6.2-6.6,9.2-12.5,9.1v2.6h21.4v-2.6
		c-6.6,0-8.7-3-6.2-9.1c0,0,13.8-36.1,20.8-54.5l0,0.1c0,0,0,0,0,0c0.5,1.3,1,2.6,1.5,3.8l4.6,11.4l0,0c1,2.4,1.8,4.5,2.6,6.5h0
		l5.1,12.5c0.2,0.6,0.4,1,0.6,1.3h0l1,2.4h0l6.6,16.4c2.5,6.2,0.4,9.2-6.2,9.1v2.6h34.8v-2.6C237.8,299.4,233.7,296.4,231.1,290.4
		L231.1,290.4z"/>
	<polygon class="st1" points="192.7,266.6 185.3,276.8 192.7,287.1 192.7,287.1 192.7,287.1 200.1,276.8 192.7,266.6 	"/>
</g>
<g>
	<path class="st1" d="M158.6,336.9l-8.4-20.3h-1.1l-1.2,3.2l0,0l-6.5,17.2c-0.7,1.7-1.8,2.6-3.5,2.5v0.7h6v-0.7
		c-1.8,0-2.4-0.8-1.7-2.5c0,0,3.8-10.1,5.8-15.2l0,0c0,0,0,0,0,0c0.1,0.4,0.3,0.7,0.4,1.1l1.3,3.2l0,0c0.3,0.7,0.5,1.3,0.7,1.8h0
		l1.4,3.5c0.1,0.2,0.1,0.3,0.2,0.4h0l0.3,0.7h0l1.8,4.6c0.7,1.7,0.1,2.6-1.7,2.5v0.7h9.7v-0.7C160.5,339.4,159.3,338.5,158.6,336.9
		L158.6,336.9z"/>
	<polygon class="st1" points="147.9,330.2 145.8,333.1 147.9,335.9 147.9,335.9 147.9,335.9 150,333.1 147.9,330.2 	"/>
	<path class="st1" d="M167.7,337.2c0,1.7,0.6,2.5,1.7,2.5v0.4h-6.2v-0.4c1.1,0,1.7-0.9,1.7-2.5V325c0-1.4-0.5-1.9-1.7-1.7v-0.4
		l4.6-0.7V337.2L167.7,337.2z"/>
	<path class="st1" d="M176,337.2c0,1.7,0.6,2.5,1.7,2.5v0.4h-6.2v-0.4c1.1,0,1.7-0.9,1.7-2.5V325c0-1.4-0.5-1.9-1.7-1.7v-0.4
		l4.6-0.7V337.2L176,337.2z"/>
	<path class="st1" d="M250,335.1c-0.7,2.5-1.9,3.8-3.7,3.9c-1.1,0-2.1-0.4-2.8-1.4c-0.7-1-1.1-2.2-1.2-3.6c0-0.9,0.1-1.8,0.3-2.7
		c0.2-0.9,0.6-1.6,1.1-2.2c0.5-0.6,1.1-0.9,1.8-0.9c0.6,0,1.1,0.1,1.4,0.4c0.1,0.1,0.3,0.4,0.4,1c0.1,0.4,0.3,0.7,0.5,0.9
		c0.2,0.2,0.4,0.3,0.6,0.4c0.3,0,0.5,0,0.8-0.1c0.3-0.2,0.4-0.4,0.5-0.7c0.1-0.5-0.2-0.9-0.7-1.4c-0.9-0.7-2.1-1.1-3.6-1.1
		c-1.9,0-3.5,0.6-4.5,1.9c-1,1.2-1.6,2.7-1.6,4.6c0,1.7,0.6,3.2,1.7,4.3c1.1,1.2,2.5,1.8,4.2,1.8c1.3,0,2.5-0.4,3.4-1.3
		c0.9-0.9,1.5-2.1,1.8-3.7L250,335.1L250,335.1z"/>
	<path class="st1" d="M261,337.1c-0.3-0.2-0.5-0.2-0.8-0.2c-0.2,0-0.5,0.2-0.6,0.4c-0.2,0.2-0.4,0.5-0.5,0.8c-0.3,0.6-0.4,1-0.5,1.1
		c-0.3,0.3-0.7,0.4-1.4,0.4c-1.6,0-2.4-0.5-2.4-1.5c0,0,0-0.1,0-0.1h0v-2.1c0,0,0,0,0,0v-3.1c0-1.2,0.2-2.2,0.7-3
		c0.4-0.8,1-1.2,1.8-1.2c0.6,0,1.1,0.2,1.5,0.7c0.3,0.5,0.5,1.1,0.5,1.7c0,3.2-2.3,3.3-2.6,3.4c1,0.2,1.4,0.1,2.6-0.1
		c1.9-0.4,2.8-1.8,2.8-3.4c0-1-0.3-1.8-1-2.4c-0.7-0.6-1.5-0.9-2.6-0.9c-3.5,0-6.6,2.7-6.6,6.2v1.9c0,1.1,0.2,1.9,0.5,2.6
		c0.6,1.3,2.2,1.9,4.7,1.9c1.5,0,2.6-0.4,3.5-1.1c0.5-0.4,0.8-0.9,0.7-1.3C261.3,337.5,261.2,337.2,261,337.1L261,337.1z"/>
	<path class="st1" d="M188.6,337.1c-0.3-0.2-0.5-0.2-0.8-0.2c-0.2,0-0.5,0.2-0.6,0.4c-0.2,0.2-0.4,0.5-0.5,0.8
		c-0.3,0.6-0.4,1-0.5,1.1c-0.3,0.3-0.7,0.4-1.4,0.4c-1.6,0-2.4-0.5-2.4-1.5c0,0,0-0.1,0-0.1h0v-2.1c0,0,0,0,0,0v-3.1
		c0-1.2,0.2-2.2,0.7-3c0.4-0.8,1-1.2,1.8-1.2c0.6,0,1.1,0.2,1.5,0.7c0.3,0.5,0.5,1.1,0.5,1.7c0,3.2-2.3,3.3-2.6,3.4
		c1,0.2,1.4,0.1,2.6-0.1c1.9-0.4,2.8-1.8,2.8-3.4c0-1-0.3-1.8-1-2.4c-0.7-0.6-1.5-0.9-2.6-0.9c-3.5,0-6.6,2.7-6.6,6.2v1.9
		c0,1.1,0.2,1.9,0.5,2.6c0.6,1.3,2.2,1.9,4.7,1.9c1.5,0,2.6-0.4,3.5-1.1c0.5-0.4,0.8-0.9,0.7-1.3C189,337.5,188.9,337.2,188.6,337.1
		L188.6,337.1z"/>
	<path class="st1" d="M215,330.6c0.3,0.2,0.5,0.2,0.8,0.2c0.2,0,0.5-0.2,0.6-0.4c0.2-0.2,0.4-0.5,0.5-0.8c0.3-0.6,0.4-1,0.5-1.1
		c0.3-0.3,0.7-0.4,1.4-0.4c1.6,0,2.4,0.5,2.4,1.5c0,0,0,0.1,0,0.1h0v2.1c0,0,0,0,0,0v3.1c0,1.2-0.2,2.2-0.7,3
		c-0.4,0.8-1,1.2-1.8,1.2c-0.6,0-1.1-0.2-1.5-0.7c-0.3-0.5-0.5-1.1-0.5-1.7c0-3.2,2.3-3.3,2.6-3.4c-1-0.2-1.4-0.1-2.6,0.1
		c-1.9,0.4-2.8,1.8-2.8,3.4c0,1,0.3,1.8,1,2.4c0.7,0.6,1.5,0.9,2.6,0.9c3.5,0,6.6-2.7,6.6-6.2V332c0-1.1-0.2-1.9-0.5-2.6
		c-0.6-1.3-2.2-1.9-4.7-1.9c-1.5,0-2.6,0.4-3.5,1.1c-0.5,0.4-0.8,0.9-0.7,1.3C214.7,330.2,214.8,330.5,215,330.6L215,330.6z"/>
	<path class="st1" d="M194.6,335.2C194.6,335.2,194.6,335.2,194.6,335.2l0.3,0.2c0.8,0.4,1.8,0.6,2.9,0.6c1.5,0,2.8-0.4,3.8-1.2
		c1.1-0.9,1.6-1.9,1.6-3.1c0-1-0.3-1.9-0.9-2.5c-0.8-1.1-2.5-1.7-4.4-1.7c-1.6,0-2.9,0.4-3.9,1.2c-1,0.8-1.5,1.9-1.5,3.1
		c0,0.7,0.2,1.3,0.6,1.9C193.5,334.4,194,334.8,194.6,335.2L194.6,335.2z M196.1,329.2c0.4-0.8,1-1.2,1.8-1.2c0.6,0,1.1,0.2,1.4,0.6
		c0.7,0.7,1,1.8,1,3.2c0,1.1-0.2,2-0.7,2.7c-0.5,0.7-1,1.1-1.7,1.1c-0.7,0-1.3-0.3-1.8-1c-0.5-0.7-0.7-1.6-0.7-2.6
		C195.5,330.8,195.7,330,196.1,329.2L196.1,329.2z"/>
	<path class="st1" d="M236.7,337.2v-5.6c0-0.9-0.1-1.2-0.3-1.6c-0.1-0.4-0.7-2-2.8-1.9c-0.9,0.1-1.4,0.6-1.6,1
		c0.3,0.1,0.7,0.1,1.2,0.6c0.4,0.5,0.6,1.1,0.6,1.9v5.6c0,1.7-0.6,2.5-1.7,2.5v0.4h6.2v-0.4C237.3,339.7,236.7,338.9,236.7,337.2
		L236.7,337.2z"/>
	<path class="st1" d="M211.1,337.3v-9.4l-4.6,0.7v0.4c1.1-0.2,1.7,0.4,1.7,1.7v6.7c0,1.6-0.5,2.4-1.7,2.4v0.4h6.2v-0.4
		C211.6,339.7,211.1,338.8,211.1,337.3z"/>
	<path class="st1" d="M230.2,337.3v-9.4l-4.6,0.7v0.4c1.1-0.2,1.7,0.4,1.7,1.7v6.7c0,1.6-0.5,2.4-1.7,2.4v0.4h6.2v-0.4
		C230.7,339.7,230.2,338.8,230.2,337.3z"/>
	<polygon class="st1" points="210.6,325 209.4,323.4 208.2,325 209.4,326.7 	"/>
	<g>
		<path class="st1" d="M208.3,345.5l1.6,2.3h-1l-1.5-2.2h-0.1v2.2h-0.8v-5.3h0.9c0.7,0,1.2,0.1,1.5,0.4c0.3,0.3,0.5,0.7,0.5,1.2
			c0,0.4-0.1,0.7-0.3,1C208.9,345.2,208.7,345.4,208.3,345.5L208.3,345.5z M207.3,344.9h0.3c0.8,0,1.1-0.3,1.1-0.9
			c0-0.5-0.4-0.8-1.1-0.8h-0.3V344.9L207.3,344.9z"/>
		<path class="st1" d="M215,343.2h-2.1v1.3h2v0.8h-2v1.8h2.1v0.8h-2.9v-5.3h2.9V343.2L215,343.2z"/>
		<path class="st1" d="M220.8,346.5h-2.2l-0.6,1.2h-0.9l2.6-5.3l2.5,5.3h-0.9L220.8,346.5L220.8,346.5z M220.5,345.8l-0.8-1.7
			l-0.8,1.7H220.5z"/>
		<path class="st1" d="M225.1,342.4v4.6h1.5v0.8h-2.3v-5.3H225.1L225.1,342.4z"/>
	</g>
	<g>
		<path class="st1" d="M235,343.2h-2.1v1.3h2v0.8h-2v1.8h2.1v0.8h-2.9v-5.3h2.9V343.2L235,343.2z"/>
		<path class="st1" d="M240.4,343.3l-0.6,0.4c-0.1-0.2-0.2-0.3-0.3-0.4c-0.1-0.1-0.3-0.1-0.4-0.1c-0.2,0-0.4,0.1-0.5,0.2
			c-0.1,0.1-0.2,0.3-0.2,0.5c0,0.3,0.2,0.5,0.6,0.6l0.5,0.2c0.4,0.2,0.7,0.4,0.9,0.6c0.2,0.2,0.3,0.5,0.3,0.9c0,0.5-0.2,0.9-0.5,1.2
			c-0.3,0.3-0.7,0.5-1.2,0.5c-0.5,0-0.8-0.1-1.1-0.4c-0.3-0.3-0.5-0.6-0.5-1.1l0.8-0.2c0,0.3,0.1,0.5,0.2,0.6
			c0.2,0.2,0.4,0.3,0.7,0.3c0.2,0,0.5-0.1,0.6-0.2c0.2-0.2,0.2-0.4,0.2-0.6c0-0.1,0-0.2,0-0.3c0-0.1-0.1-0.2-0.1-0.2
			c-0.1-0.1-0.1-0.1-0.2-0.2c-0.1-0.1-0.2-0.1-0.3-0.2l-0.5-0.2c-0.7-0.3-1.1-0.7-1.1-1.3c0-0.4,0.2-0.7,0.5-1
			c0.3-0.3,0.7-0.4,1.1-0.4C239.6,342.4,240,342.7,240.4,343.3L240.4,343.3z"/>
		<path class="st1" d="M244.7,343.2v4.6h-0.8v-4.6h-1.2v-0.8h3.2v0.8H244.7z"/>
		<path class="st1" d="M250.7,346.5h-2.2l-0.6,1.2H247l2.6-5.3l2.5,5.3h-0.9L250.7,346.5L250.7,346.5z M250.4,345.8l-0.8-1.7
			l-0.8,1.7H250.4z"/>
		<path class="st1" d="M255.2,343.2v4.6h-0.8v-4.6h-1.2v-0.8h3.2v0.8H255.2z"/>
		<path class="st1" d="M261.5,343.2h-2.1v1.3h2v0.8h-2v1.8h2.1v0.8h-2.9v-5.3h2.9V343.2L261.5,343.2z"/>
	</g>
	<path class="st1" d="M200.1,338.7h-4.8c-1,0-1.6-0.3-1.7-0.9c-0.1-0.2,0-0.5,0-0.7c0.1-0.2,0.2-0.4,0.3-0.5
		c0.2-0.2,0.5-0.5,0.6-0.5l-0.4-0.3c0,0,0,0,0,0c0,0,0,0-0.1-0.1l-0.7,0.5c-0.9,0.7-1.5,1.5-1.7,2.4c-0.1,0.3,0,0.7,0.1,1.2
		c0.1,0.4,0.3,0.8,0.7,1.2c-0.7,0.7-1,1.6-1.1,2.6c0,0.6,0.1,1.2,0.4,1.7c0.3,0.5,0.7,1,1.2,1.3c1.1,0.7,2.6,1,4.4,1
		c1.9,0,3.5-0.4,4.8-1.2c1.7-1,2.6-2.3,2.6-3.9C204.7,340,203.2,338.7,200.1,338.7L200.1,338.7z M202.9,344.6
		c-0.2,0.3-0.4,0.6-0.7,0.9c-1.3,1-2.9,1.5-4.8,1.5c-1.9,0.1-3.3-0.2-4.2-0.8c-0.9-0.6-1.3-1.5-1.3-2.5c0-0.9,0.3-1.7,0.9-2.3
		c0.4,0.3,0.8,0.5,1.1,0.6c0.3,0.1,0.8,0.2,1.5,0.2h5.9c0.6,0,1.1,0.1,1.5,0.4c0.3,0.2,0.5,0.6,0.5,1
		C203.1,343.9,203.1,344.2,202.9,344.6L202.9,344.6z"/>
</g>
</svg>
