<?xml version="1.0" encoding="utf-8"?>
<!-- Generator: Adobe Illustrator 28.1.0, SVG Export Plug-In . SVG Version: 6.00 Build 0)  -->
<svg version="1.1" id="Layer_1" xmlns="http://www.w3.org/2000/svg" xmlns:xlink="http://www.w3.org/1999/xlink" x="0px" y="0px"
	 viewBox="0 0 600 400" style="enable-background:new 0 0 600 400;" xml:space="preserve">
<style type="text/css">
	.st0{fill:#0A0A0A;}
	.st1{fill:#FFFFFF;}
</style>
<g>
	<rect class="st0" width="600" height="400"/>
</g>
<g>
	<g>
		<path class="st1" d="M331.1,207.7l-30.3-72.9h-4l-4.3,11.3V146l-23.4,61.6c-2.4,6.2-6.6,9.2-12.5,9.1v2.6H278v-2.6
			c-6.6,0-8.7-3-6.2-9.1c0,0,13.8-36.1,20.8-54.5v0.1l0,0c0.5,1.3,1,2.6,1.5,3.8l4.6,11.4l0,0c1,2.4,1.8,4.5,2.6,6.5l0,0l5.1,12.5
			c0.2,0.6,0.4,1,0.6,1.3l0,0l1,2.4l0,0l6.6,16.4c2.5,6.2,0.4,9.2-6.2,9.1v2.6h34.8v-2.6C337.8,216.7,333.7,213.7,331.1,207.7
			L331.1,207.7z"/>
		<polygon class="st1" points="292.7,183.9 285.3,194.1 292.7,204.4 292.7,204.4 292.7,204.4 300.1,194.1 		"/>
	</g>
	<g>
		<path class="st1" d="M258.6,254.2l-8.4-20.3h-1.1l-1.2,3.2l0,0l-6.5,17.2c-0.7,1.7-1.8,2.6-3.5,2.5v0.7h6v-0.7
			c-1.8,0-2.4-0.8-1.7-2.5c0,0,3.8-10.1,5.8-15.2l0,0l0,0c0.1,0.4,0.3,0.7,0.4,1.1l1.3,3.2l0,0c0.3,0.7,0.5,1.3,0.7,1.8l0,0l1.4,3.5
			c0.1,0.2,0.1,0.3,0.2,0.4l0,0l0.3,0.7l0,0l1.8,4.6c0.7,1.7,0.1,2.6-1.7,2.5v0.7h9.7v-0.7C260.5,256.7,259.3,255.8,258.6,254.2
			L258.6,254.2z"/>
		<polygon class="st1" points="247.9,247.5 245.8,250.4 247.9,253.2 247.9,253.2 247.9,253.2 250,250.4 		"/>
		<path class="st1" d="M267.7,254.5c0,1.7,0.6,2.5,1.7,2.5v0.4h-6.2V257c1.1,0,1.7-0.9,1.7-2.5v-12.2c0-1.4-0.5-1.9-1.7-1.7v-0.4
			l4.6-0.7v15H267.7z"/>
		<path class="st1" d="M276,254.5c0,1.7,0.6,2.5,1.7,2.5v0.4h-6.2V257c1.1,0,1.7-0.9,1.7-2.5v-12.2c0-1.4-0.5-1.9-1.7-1.7v-0.4
			l4.6-0.7v15H276z"/>
		<path class="st1" d="M350,252.4c-0.7,2.5-1.9,3.8-3.7,3.9c-1.1,0-2.1-0.4-2.8-1.4c-0.7-1-1.1-2.2-1.2-3.6c0-0.9,0.1-1.8,0.3-2.7
			c0.2-0.9,0.6-1.6,1.1-2.2s1.1-0.9,1.8-0.9c0.6,0,1.1,0.1,1.4,0.4c0.1,0.1,0.3,0.4,0.4,1c0.1,0.4,0.3,0.7,0.5,0.9
			c0.2,0.2,0.4,0.3,0.6,0.4c0.3,0,0.5,0,0.8-0.1c0.3-0.2,0.4-0.4,0.5-0.7c0.1-0.5-0.2-0.9-0.7-1.4c-0.9-0.7-2.1-1.1-3.6-1.1
			c-1.9,0-3.5,0.6-4.5,1.9c-1,1.2-1.6,2.7-1.6,4.6c0,1.7,0.6,3.2,1.7,4.3c1.1,1.2,2.5,1.8,4.2,1.8c1.3,0,2.5-0.4,3.4-1.3
			s1.5-2.1,1.8-3.7L350,252.4L350,252.4z"/>
		<path class="st1" d="M361,254.4c-0.3-0.2-0.5-0.2-0.8-0.2c-0.2,0-0.5,0.2-0.6,0.4c-0.2,0.2-0.4,0.5-0.5,0.8
			c-0.3,0.6-0.4,1-0.5,1.1c-0.3,0.3-0.7,0.4-1.4,0.4c-1.6,0-2.4-0.5-2.4-1.5v-0.1l0,0v-2.1l0,0v-3.1c0-1.2,0.2-2.2,0.7-3
			c0.4-0.8,1-1.2,1.8-1.2c0.6,0,1.1,0.2,1.5,0.7c0.3,0.5,0.5,1.1,0.5,1.7c0,3.2-2.3,3.3-2.6,3.4c1,0.2,1.4,0.1,2.6-0.1
			c1.9-0.4,2.8-1.8,2.8-3.4c0-1-0.3-1.8-1-2.4s-1.5-0.9-2.6-0.9c-3.5,0-6.6,2.7-6.6,6.2v1.9c0,1.1,0.2,1.9,0.5,2.6
			c0.6,1.3,2.2,1.9,4.7,1.9c1.5,0,2.6-0.4,3.5-1.1c0.5-0.4,0.8-0.9,0.7-1.3C361.3,254.8,361.2,254.5,361,254.4L361,254.4z"/>
		<path class="st1" d="M288.6,254.4c-0.3-0.2-0.5-0.2-0.8-0.2c-0.2,0-0.5,0.2-0.6,0.4c-0.2,0.2-0.4,0.5-0.5,0.8
			c-0.3,0.6-0.4,1-0.5,1.1c-0.3,0.3-0.7,0.4-1.4,0.4c-1.6,0-2.4-0.5-2.4-1.5v-0.1l0,0v-2.1l0,0v-3.1c0-1.2,0.2-2.2,0.7-3
			c0.4-0.8,1-1.2,1.8-1.2c0.6,0,1.1,0.2,1.5,0.7c0.3,0.5,0.5,1.1,0.5,1.7c0,3.2-2.3,3.3-2.6,3.4c1,0.2,1.4,0.1,2.6-0.1
			c1.9-0.4,2.8-1.8,2.8-3.4c0-1-0.3-1.8-1-2.4c-0.7-0.6-1.5-0.9-2.6-0.9c-3.5,0-6.6,2.7-6.6,6.2v1.9c0,1.1,0.2,1.9,0.5,2.6
			c0.6,1.3,2.2,1.9,4.7,1.9c1.5,0,2.6-0.4,3.5-1.1c0.5-0.4,0.8-0.9,0.7-1.3C289,254.8,288.9,254.5,288.6,254.4L288.6,254.4z"/>
		<path class="st1" d="M315,247.9c0.3,0.2,0.5,0.2,0.8,0.2c0.2,0,0.5-0.2,0.6-0.4c0.2-0.2,0.4-0.5,0.5-0.8c0.3-0.6,0.4-1,0.5-1.1
			c0.3-0.3,0.7-0.4,1.4-0.4c1.6,0,2.4,0.5,2.4,1.5v0.1l0,0v2.1l0,0v3.1c0,1.2-0.2,2.2-0.7,3c-0.4,0.8-1,1.2-1.8,1.2
			c-0.6,0-1.1-0.2-1.5-0.7c-0.3-0.5-0.5-1.1-0.5-1.7c0-3.2,2.3-3.3,2.6-3.4c-1-0.2-1.4-0.1-2.6,0.1c-1.9,0.4-2.8,1.8-2.8,3.4
			c0,1,0.3,1.8,1,2.4c0.7,0.6,1.5,0.9,2.6,0.9c3.5,0,6.6-2.7,6.6-6.2v-1.9c0-1.1-0.2-1.9-0.5-2.6c-0.6-1.3-2.2-1.9-4.7-1.9
			c-1.5,0-2.6,0.4-3.5,1.1c-0.5,0.4-0.8,0.9-0.7,1.3C314.7,247.5,314.8,247.8,315,247.9L315,247.9z"/>
		<path class="st1" d="M294.6,252.5L294.6,252.5l0.3,0.2c0.8,0.4,1.8,0.6,2.9,0.6c1.5,0,2.8-0.4,3.8-1.2c1.1-0.9,1.6-1.9,1.6-3.1
			c0-1-0.3-1.9-0.9-2.5c-0.8-1.1-2.5-1.7-4.4-1.7c-1.6,0-2.9,0.4-3.9,1.2c-1,0.8-1.5,1.9-1.5,3.1c0,0.7,0.2,1.3,0.6,1.9
			C293.5,251.7,294,252.1,294.6,252.5L294.6,252.5z M296.1,246.5c0.4-0.8,1-1.2,1.8-1.2c0.6,0,1.1,0.2,1.4,0.6c0.7,0.7,1,1.8,1,3.2
			c0,1.1-0.2,2-0.7,2.7s-1,1.1-1.7,1.1c-0.7,0-1.3-0.3-1.8-1s-0.7-1.6-0.7-2.6C295.5,248.1,295.7,247.3,296.1,246.5L296.1,246.5z"/>
		<path class="st1" d="M336.7,254.5v-5.6c0-0.9-0.1-1.2-0.3-1.6c-0.1-0.4-0.7-2-2.8-1.9c-0.9,0.1-1.4,0.6-1.6,1
			c0.3,0.1,0.7,0.1,1.2,0.6c0.4,0.5,0.6,1.1,0.6,1.9v5.6c0,1.7-0.6,2.5-1.7,2.5v0.4h6.2V257C337.3,257,336.7,256.2,336.7,254.5
			L336.7,254.5z"/>
		<path class="st1" d="M311.1,254.6v-9.4l-4.6,0.7v0.4c1.1-0.2,1.7,0.4,1.7,1.7v6.7c0,1.6-0.5,2.4-1.7,2.4v0.4h6.2v-0.4
			C311.6,257,311.1,256.1,311.1,254.6z"/>
		<path class="st1" d="M330.2,254.6v-9.4l-4.6,0.7v0.4c1.1-0.2,1.7,0.4,1.7,1.7v6.7c0,1.6-0.5,2.4-1.7,2.4v0.4h6.2v-0.4
			C330.7,257,330.2,256.1,330.2,254.6z"/>
		<polygon class="st1" points="310.6,242.3 309.4,240.7 308.2,242.3 309.4,244 		"/>
		<g>
			<path class="st1" d="M308.3,262.8l1.6,2.3h-1l-1.5-2.2h-0.1v2.2h-0.8v-5.3h0.9c0.7,0,1.2,0.1,1.5,0.4c0.3,0.3,0.5,0.7,0.5,1.2
				c0,0.4-0.1,0.7-0.3,1C308.9,262.5,308.7,262.7,308.3,262.8L308.3,262.8z M307.3,262.2h0.3c0.8,0,1.1-0.3,1.1-0.9
				c0-0.5-0.4-0.8-1.1-0.8h-0.3V262.2L307.3,262.2z"/>
			<path class="st1" d="M315,260.5h-2.1v1.3h2v0.8h-2v1.8h2.1v0.8h-2.9v-5.3h2.9V260.5L315,260.5z"/>
			<path class="st1" d="M320.8,263.8h-2.2L318,265h-0.9l2.6-5.3l2.5,5.3h-0.9L320.8,263.8L320.8,263.8z M320.5,263.1l-0.8-1.7
				l-0.8,1.7H320.5z"/>
			<path class="st1" d="M325.1,259.7v4.6h1.5v0.8h-2.3v-5.3h0.8V259.7z"/>
		</g>
		<g>
			<path class="st1" d="M335,260.5h-2.1v1.3h2v0.8h-2v1.8h2.1v0.8h-2.9v-5.3h2.9V260.5L335,260.5z"/>
			<path class="st1" d="M340.4,260.6l-0.6,0.4c-0.1-0.2-0.2-0.3-0.3-0.4s-0.3-0.1-0.4-0.1c-0.2,0-0.4,0.1-0.5,0.2s-0.2,0.3-0.2,0.5
				c0,0.3,0.2,0.5,0.6,0.6l0.5,0.2c0.4,0.2,0.7,0.4,0.9,0.6c0.2,0.2,0.3,0.5,0.3,0.9c0,0.5-0.2,0.9-0.5,1.2
				c-0.3,0.3-0.7,0.5-1.2,0.5s-0.8-0.1-1.1-0.4c-0.3-0.3-0.5-0.6-0.5-1.1l0.8-0.2c0,0.3,0.1,0.5,0.2,0.6c0.2,0.2,0.4,0.3,0.7,0.3
				c0.2,0,0.5-0.1,0.6-0.2c0.2-0.2,0.2-0.4,0.2-0.6c0-0.1,0-0.2,0-0.3c0-0.1-0.1-0.2-0.1-0.2c-0.1-0.1-0.1-0.1-0.2-0.2
				s-0.2-0.1-0.3-0.2l-0.5-0.2c-0.7-0.3-1.1-0.7-1.1-1.3c0-0.4,0.2-0.7,0.5-1c0.3-0.3,0.7-0.4,1.1-0.4
				C339.6,259.7,340,260,340.4,260.6L340.4,260.6z"/>
			<path class="st1" d="M344.7,260.5v4.6h-0.8v-4.6h-1.2v-0.8h3.2v0.8H344.7z"/>
			<path class="st1" d="M350.7,263.8h-2.2l-0.6,1.2H347l2.6-5.3l2.5,5.3h-0.9L350.7,263.8L350.7,263.8z M350.4,263.1l-0.8-1.7
				l-0.8,1.7H350.4z"/>
			<path class="st1" d="M355.2,260.5v4.6h-0.8v-4.6h-1.2v-0.8h3.2v0.8H355.2z"/>
			<path class="st1" d="M361.5,260.5h-2.1v1.3h2v0.8h-2v1.8h2.1v0.8h-2.9v-5.3h2.9V260.5L361.5,260.5z"/>
		</g>
		<path class="st1" d="M300.1,256h-4.8c-1,0-1.6-0.3-1.7-0.9c-0.1-0.2,0-0.5,0-0.7c0.1-0.2,0.2-0.4,0.3-0.5c0.2-0.2,0.5-0.5,0.6-0.5
			l-0.4-0.3l0,0c0,0,0,0-0.1-0.1l-0.7,0.5c-0.9,0.7-1.5,1.5-1.7,2.4c-0.1,0.3,0,0.7,0.1,1.2c0.1,0.4,0.3,0.8,0.7,1.2
			c-0.7,0.7-1,1.6-1.1,2.6c0,0.6,0.1,1.2,0.4,1.7s0.7,1,1.2,1.3c1.1,0.7,2.6,1,4.4,1c1.9,0,3.5-0.4,4.8-1.2c1.7-1,2.6-2.3,2.6-3.9
			C304.7,257.3,303.2,256,300.1,256L300.1,256z M302.9,261.9c-0.2,0.3-0.4,0.6-0.7,0.9c-1.3,1-2.9,1.5-4.8,1.5
			c-1.9,0.1-3.3-0.2-4.2-0.8c-0.9-0.6-1.3-1.5-1.3-2.5c0-0.9,0.3-1.7,0.9-2.3c0.4,0.3,0.8,0.5,1.1,0.6c0.3,0.1,0.8,0.2,1.5,0.2h5.9
			c0.6,0,1.1,0.1,1.5,0.4c0.3,0.2,0.5,0.6,0.5,1C303.1,261.2,303.1,261.5,302.9,261.9L302.9,261.9z"/>
	</g>
</g>
</svg>
