<svg width="20" height="20" viewBox="0 0 20 20" fill="none" xmlns="http://www.w3.org/2000/svg">
<path d="M2.47449 14.4642C1.38691 12.6308 1.00602 10.4634 1.40337 8.36904C1.80071 6.27468 2.94894 4.39742 4.63245 3.08974C6.31596 1.78207 8.41893 1.13396 10.5465 1.26709C12.674 1.40023 14.6798 2.30546 16.1872 3.8128C17.6945 5.32015 18.5998 7.32592 18.7329 9.45347C18.8661 11.581 18.2179 13.684 16.9103 15.3675C15.6026 17.051 13.7254 18.1993 11.631 18.5966C9.53666 18.994 7.36928 18.6131 5.53587 17.5255L5.5359 17.5254L2.51255 18.3893C2.38747 18.425 2.2551 18.4266 2.12917 18.394C2.00323 18.3614 1.88832 18.2957 1.79633 18.2037C1.70434 18.1117 1.63863 17.9968 1.606 17.8708C1.57336 17.7449 1.575 17.6125 1.61074 17.4874L2.47456 14.4641L2.47449 14.4642Z" stroke="white" stroke-linecap="round" stroke-linejoin="round"/>
<path d="M12.4179 15C11.4434 15.0014 10.4782 14.8105 9.57758 14.4382C8.67697 14.0659 7.85867 13.5195 7.16958 12.8304C6.48049 12.1413 5.93414 11.323 5.56184 10.4224C5.18955 9.52181 4.99862 8.55659 5.00001 7.58207C5.00221 6.89611 5.2764 6.23904 5.76243 5.75499C6.24846 5.27093 6.90664 4.99942 7.59259 5V5C7.7051 5 7.81562 5.02974 7.91293 5.08622C8.01024 5.14269 8.09089 5.22388 8.14671 5.32157L9.22922 7.21595C9.2945 7.33019 9.32817 7.45977 9.32677 7.59134C9.32538 7.72291 9.28895 7.85174 9.22126 7.96457L8.3519 9.4135C8.79916 10.4061 9.59393 11.2008 10.5865 11.6481V11.6481L12.0354 10.7788C12.1483 10.7111 12.2771 10.6746 12.4087 10.6732C12.5402 10.6718 12.6698 10.7055 12.784 10.7708L14.6784 11.8533C14.7761 11.9091 14.8573 11.9898 14.9138 12.0871C14.9703 12.1844 15 12.2949 15 12.4074V12.4074C14.998 13.0926 14.7257 13.7493 14.2422 14.2348C13.7587 14.7202 13.1031 14.9952 12.4179 15V15Z" stroke="white" stroke-linecap="round" stroke-linejoin="round"/>
</svg>